<svg width="27" height="25" viewBox="0 0 27 25" fill="none" xmlns="http://www.w3.org/2000/svg">
<path fill-rule="evenodd" clip-rule="evenodd" d="M13.6265 0C6.62158 0 0.947922 5.73524 0.947922 12.8162C0.947922 18.4873 4.57716 23.2774 9.61689 24.9755C10.2508 25.0877 10.4885 24.7032 10.4885 24.3667C10.4885 24.0624 10.4727 23.0531 10.4727 21.9797C7.28721 22.5725 6.4631 21.1947 6.20953 20.4738C6.0669 20.1054 5.44881 18.9679 4.90998 18.6636C4.46623 18.4232 3.8323 17.8305 4.89413 17.8145C5.89256 17.7985 6.60573 18.7437 6.84346 19.1281C7.98453 21.0666 9.80707 20.5219 10.5361 20.1855C10.647 19.3524 10.9798 18.7917 11.3444 18.4713C8.52337 18.1509 5.5756 17.0455 5.5756 12.1433C5.5756 10.7496 6.0669 9.59611 6.87515 8.69898C6.74837 8.37857 6.30462 7.06492 7.00194 5.30269C7.00194 5.30269 8.06377 4.96627 10.4885 6.61635C11.5028 6.32799 12.5805 6.1838 13.6582 6.1838C14.7359 6.1838 15.8135 6.32799 16.8278 6.61635C19.2526 4.95025 20.3144 5.30269 20.3144 5.30269C21.0118 7.06492 20.568 8.37857 20.4412 8.69898C21.2495 9.59611 21.7408 10.7335 21.7408 12.1433C21.7408 17.0615 18.7772 18.1509 15.9562 18.4713C16.4158 18.8718 16.812 19.6408 16.812 20.8423C16.812 22.5565 16.7961 23.9342 16.7961 24.3667C16.7961 24.7032 17.0339 25.1037 17.6678 24.9755C20.1847 24.1165 22.3717 22.4814 23.9211 20.3001C25.4706 18.1189 26.3043 15.5015 26.3051 12.8162C26.3051 5.73524 20.6314 0 13.6265 0Z" fill="white"/>
</svg>
