<svg width="26" height="25" viewBox="0 0 26 25" fill="none" xmlns="http://www.w3.org/2000/svg">
<path d="M5.90118 25H0.718025V8.30878H5.90118V25ZM3.30681 6.03194C1.64941 6.03194 0.305069 4.65914 0.305069 3.00174C0.305069 2.20563 0.621323 1.44213 1.18426 0.87919C1.74719 0.316254 2.5107 0 3.30681 0C4.10292 0 4.86643 0.316254 5.42936 0.87919C5.9923 1.44213 6.30855 2.20563 6.30855 3.00174C6.30855 4.65914 4.96366 6.03194 3.30681 6.03194ZM25.3 25H20.1281V16.8748C20.1281 14.9384 20.089 12.4551 17.4332 12.4551C14.7384 12.4551 14.3255 14.5589 14.3255 16.7353V25H9.1479V8.30878H14.119V10.5856H14.1915C14.8835 9.2742 16.5738 7.89024 19.0957 7.89024C24.3413 7.89024 25.3056 11.3446 25.3056 15.8313V25H25.3Z" fill="white"/>
</svg>
