<svg width="32" height="25" viewBox="0 0 32 25" fill="none" xmlns="http://www.w3.org/2000/svg">
<path d="M31.3762 2.95944C30.2472 3.46137 29.0341 3.8006 27.7608 3.95321C29.0606 3.17214 30.0586 1.93527 30.5285 0.461557C29.2929 1.19671 27.941 1.71468 26.5313 1.99307C25.3831 0.766537 23.7472 0 21.9366 0C18.4602 0 15.6417 2.82582 15.6417 6.3111C15.6417 6.80583 15.6974 7.28745 15.8047 7.74949C10.5732 7.4862 5.93498 4.97366 2.83024 1.15527C2.28852 2.0874 1.9781 3.17165 1.9781 4.32813C1.9781 6.51779 3.08948 8.44945 4.77842 9.5813C3.7788 9.54991 2.80118 9.27921 1.92717 8.79181C1.92681 8.81824 1.92681 8.84468 1.92681 8.87124C1.92681 11.9291 4.09659 14.48 6.97612 15.0598C6.04918 15.3125 5.07688 15.3495 4.1335 15.1679C4.93446 17.6753 7.25921 19.4999 10.0136 19.551C7.8593 21.2436 5.14504 22.2527 2.19599 22.2527C1.68783 22.2527 1.18685 22.2227 0.694382 22.1644C3.48007 23.9552 6.7888 25 10.3436 25C21.922 25 28.2534 15.383 28.2534 7.04303C28.2534 6.7693 28.2474 6.49712 28.2351 6.22651C29.4675 5.3333 30.5311 4.22697 31.3762 2.95944Z" fill="white"/>
</svg>
