<svg width="36" height="25" viewBox="0 0 36 25" fill="none" xmlns="http://www.w3.org/2000/svg">
<path d="M35.9067 8.8139C35.9819 6.49917 35.4737 4.2027 34.4288 2.13586C33.7309 1.2737 32.747 0.690268 31.6557 0.491415C27.1733 0.10225 22.6738 -0.0558816 18.1751 0.0176465C13.677 -0.0562328 9.17801 0.1019 4.69615 0.491415C3.80682 0.656345 2.98541 1.07352 2.32569 1.68958C0.878509 3.03166 0.773406 5.32936 0.555117 7.26647C0.316558 10.7561 0.316558 14.258 0.555117 17.7476C0.595541 18.8407 0.758854 19.9256 1.04344 20.9815C1.23747 21.7997 1.62878 22.5564 2.18663 23.1854C2.84635 23.8355 3.68717 24.272 4.59751 24.4386C8.08368 24.8703 11.5973 25.0482 15.1077 24.9689C20.759 25.0595 25.736 24.9641 31.5991 24.5227C32.5369 24.361 33.402 23.9195 34.0795 23.255C34.521 22.8152 34.8557 22.2816 35.0562 21.693C35.6415 19.9224 35.9293 18.0661 35.9067 16.2018C35.9617 15.2397 35.9617 9.77599 35.9067 8.81229V8.8139ZM24.0867 12.1448L24.0803 12.1416C22.7382 12.8854 21.1891 13.6712 19.556 14.5007C17.9132 15.3335 16.1895 16.2083 14.5095 17.1202V7.11124C16.1054 7.94883 17.6836 8.77186 19.2714 9.60136C20.856 10.4325 22.452 11.2733 24.0803 12.1416L24.0997 12.1303L24.0867 12.1448Z" fill="white"/>
</svg>
