<svg width="26" height="25" viewBox="0 0 26 25" fill="none" xmlns="http://www.w3.org/2000/svg">
<path d="M6.30884 12.4986C6.30884 10.5918 7.06634 8.76299 8.41469 7.41464C9.76305 6.06628 11.5918 5.30878 13.4987 5.30878C15.4055 5.30878 17.2343 6.06628 18.5826 7.41464C19.931 8.76299 20.6885 10.5918 20.6885 12.4986C20.6885 14.4055 19.931 16.2342 18.5826 17.5826C17.2343 18.931 15.4055 19.6884 13.4987 19.6884C11.5918 19.6884 9.76305 18.931 8.41469 17.5826C7.06634 16.2342 6.30884 14.4055 6.30884 12.4986V12.4986Z" fill="white" fill-opacity="0.87"/>
<path d="M13.8214 0.164095C13.7843 0.113257 13.7358 0.0718951 13.6797 0.0433793C13.6236 0.0148634 13.5616 0 13.4987 0C13.4357 0 13.3737 0.0148634 13.3176 0.0433793C13.2615 0.0718951 13.213 0.113257 13.1759 0.164095L11.722 2.16926C11.663 2.25125 11.5752 2.30788 11.4762 2.32774C11.3772 2.3476 11.2743 2.32923 11.1883 2.27631L9.07612 0.978943C9.02244 0.945908 8.96172 0.926043 8.89889 0.920971C8.83607 0.915899 8.77294 0.925765 8.71467 0.949762C8.65639 0.973758 8.60462 1.01121 8.56358 1.05904C8.52255 1.10688 8.49341 1.16374 8.47856 1.22499L7.90338 3.63758C7.87972 3.73509 7.82025 3.82012 7.73676 3.87577C7.65328 3.93143 7.55191 3.95363 7.45281 3.93796L5.00507 3.54811C4.94282 3.53826 4.87913 3.54328 4.81919 3.56276C4.75925 3.58224 4.70477 3.61563 4.6602 3.66019C4.61564 3.70476 4.58225 3.75924 4.56277 3.81918C4.54329 3.87911 4.53827 3.94281 4.54812 4.00506L4.93797 6.4528C4.95358 6.55212 4.93116 6.65368 4.87518 6.7372C4.81921 6.82071 4.7338 6.88005 4.636 6.90336L2.22501 7.47855C2.16376 7.4934 2.10689 7.52253 2.05905 7.56357C2.01122 7.60461 1.97377 7.65638 1.94977 7.71465C1.92578 7.77293 1.91591 7.83606 1.92098 7.89888C1.92605 7.9617 1.94592 8.02243 1.97895 8.07611L3.27632 10.1883C3.32877 10.2742 3.34688 10.3767 3.32703 10.4753C3.30718 10.574 3.25084 10.6615 3.16927 10.7204L1.16251 12.1743C1.11136 12.2113 1.06972 12.26 1.041 12.3162C1.01229 12.3725 0.997314 12.4347 0.997314 12.4979C0.997314 12.561 1.01229 12.6232 1.041 12.6795C1.06972 12.7357 1.11136 12.7844 1.16251 12.8214L3.16927 14.2753C3.25127 14.3343 3.30789 14.4221 3.32775 14.5211C3.34762 14.6201 3.32924 14.723 3.27632 14.809L1.97895 16.9212C1.94592 16.9749 1.92605 17.0356 1.92098 17.0984C1.91591 17.1612 1.92578 17.2244 1.94977 17.2826C1.97377 17.3409 2.01122 17.3927 2.05905 17.4337C2.10689 17.4748 2.16376 17.5039 2.22501 17.5188L4.63759 18.0939C4.7351 18.1176 4.82013 18.1771 4.87579 18.2606C4.93144 18.344 4.95364 18.4454 4.93797 18.5445L4.54812 20.9922C4.53827 21.0545 4.54329 21.1182 4.56277 21.1781C4.58225 21.2381 4.61564 21.2925 4.6602 21.3371C4.70477 21.3817 4.75925 21.4151 4.81919 21.4345C4.87913 21.454 4.94282 21.459 5.00507 21.4492L7.45281 21.0593C7.55213 21.0437 7.65369 21.0662 7.73721 21.1221C7.82073 21.1781 7.88006 21.2635 7.90338 21.3613L8.47856 23.7707C8.49321 23.8321 8.5222 23.8891 8.56315 23.9372C8.60411 23.9852 8.65585 24.0228 8.71416 24.047C8.77246 24.0712 8.83566 24.0812 8.89858 24.0762C8.96149 24.0712 9.02234 24.0514 9.07612 24.0184L11.1883 22.721C11.2742 22.6685 11.3767 22.6504 11.4753 22.6703C11.574 22.6901 11.6615 22.7465 11.7204 22.828L13.1743 24.8348C13.2114 24.886 13.26 24.9276 13.3162 24.9563C13.3725 24.985 13.4347 25 13.4979 25C13.561 25 13.6233 24.985 13.6795 24.9563C13.7357 24.9276 13.7844 24.886 13.8214 24.8348L15.2754 22.828C15.3343 22.746 15.4221 22.6894 15.5211 22.6696C15.6201 22.6497 15.723 22.6681 15.809 22.721L17.9212 24.0184C17.975 24.0514 18.0358 24.0712 18.0987 24.0762C18.1617 24.0812 18.2249 24.0712 18.2832 24.047C18.3415 24.0228 18.3932 23.9852 18.4342 23.9372C18.4751 23.8891 18.5041 23.8321 18.5188 23.7707L19.094 21.3613C19.1169 21.2632 19.1761 21.1774 19.2597 21.1211C19.3432 21.0648 19.445 21.0422 19.5445 21.0577L21.9923 21.4492C22.0545 21.459 22.1182 21.454 22.1781 21.4345C22.2381 21.4151 22.2926 21.3817 22.3371 21.3371C22.3817 21.2925 22.4151 21.2381 22.4346 21.1781C22.454 21.1182 22.4591 21.0545 22.4492 20.9922L22.0594 18.5445C22.0437 18.4452 22.0662 18.3436 22.1221 18.2601C22.1781 18.1766 22.2635 18.1173 22.3613 18.0939L24.7707 17.5188C24.8321 17.5041 24.8892 17.4751 24.9372 17.4342C24.9852 17.3932 25.0228 17.3415 25.047 17.2832C25.0712 17.2249 25.0812 17.1617 25.0762 17.0987C25.0712 17.0358 25.0514 16.975 25.0184 16.9212L23.721 14.809C23.6686 14.7231 23.6505 14.6206 23.6703 14.522C23.6901 14.4234 23.7465 14.3358 23.8281 14.2769L25.8348 12.823C25.886 12.786 25.9276 12.7373 25.9563 12.6811C25.985 12.6248 26 12.5626 26 12.4995C26 12.4363 25.985 12.3741 25.9563 12.3178C25.9276 12.2616 25.886 12.2129 25.8348 12.1759L23.8281 10.722C23.7461 10.663 23.6894 10.5752 23.6696 10.4762C23.6497 10.3772 23.6681 10.2743 23.721 10.1883L25.0184 8.07611C25.0514 8.02232 25.0712 7.96148 25.0762 7.89857C25.0812 7.83565 25.0712 7.77245 25.047 7.71415C25.0228 7.65584 24.9852 7.60409 24.9372 7.56314C24.8892 7.52219 24.8321 7.4932 24.7707 7.47855L22.3613 6.90336C22.2632 6.88039 22.1774 6.8212 22.1211 6.73764C22.0649 6.65409 22.0422 6.55234 22.0578 6.4528L22.4492 4.00506C22.4591 3.94281 22.454 3.87911 22.4346 3.81918C22.4151 3.75924 22.3817 3.70476 22.3371 3.66019C22.2926 3.61563 22.2381 3.58224 22.1781 3.56276C22.1182 3.54328 22.0545 3.53826 21.9923 3.54811L19.5445 3.93796C19.4452 3.95357 19.3436 3.93115 19.2601 3.87517C19.1766 3.8192 19.1173 3.73379 19.094 3.63599L18.5188 1.22499C18.5039 1.16374 18.4748 1.10688 18.4337 1.05904C18.3927 1.01121 18.3409 0.973758 18.2827 0.949762C18.2244 0.925765 18.1613 0.915899 18.0984 0.920971C18.0356 0.926043 17.9749 0.945908 17.9212 0.978943L15.809 2.27631C15.7231 2.32875 15.6206 2.34686 15.522 2.32702C15.4234 2.30717 15.3358 2.25083 15.2769 2.16926L13.823 0.164095H13.8214ZM13.4987 3.71108C15.8293 3.71108 18.0644 4.63691 19.7124 6.2849C21.3604 7.93289 22.2862 10.168 22.2862 12.4987C22.2862 14.8293 21.3604 17.0644 19.7124 18.7124C18.0644 20.3604 15.8293 21.2862 13.4987 21.2862C11.1681 21.2862 8.9329 20.3604 7.28491 18.7124C5.63692 17.0644 4.71109 14.8293 4.71109 12.4987C4.71109 10.168 5.63692 7.93289 7.28491 6.2849C8.9329 4.63691 11.1681 3.71108 13.4987 3.71108V3.71108Z" fill="white" fill-opacity="0.87"/>
</svg>
